<!-- This Source Code Form is subject to the terms of the Mozilla Public
   - License, v. 2.0. If a copy of the MPL was not distributed with this
   - file, You can obtain one at http://mozilla.org/MPL/2.0/. -->
<svg width="407" height="42" viewBox="0 0 407 42" xmlns="http://www.w3.org/2000/svg">
<path fill="context-fill" d="M310.779 8.90039C317.181 8.90039 321.06 13.6224 321.06 21.8506C321.059 30.0318 317.181 34.8008 310.779 34.8008C307.135 34.8008 304.564 33.2578 302.882 30.3594H302.274C302.461 32.9304 302.462 34.4266 302.462 35.8291V42H298.489V9.36816H302.088V13.6221H302.742C304.471 10.5366 307.088 8.9004 310.779 8.90039ZM260.279 8.90039C267.335 8.90039 271.495 13.2013 271.495 20.915V22.458H252.896V22.7852C252.896 28.7691 255.186 31.5272 260.279 31.5273C265.233 31.5273 266.728 28.676 266.729 27.6475V27.6006H270.794C269.392 32.2757 265.7 34.8008 260.279 34.8008C252.99 34.8006 248.645 30.1252 248.645 21.8506C248.645 13.5758 252.99 8.90059 260.279 8.90039ZM369.222 8.90039C375.156 8.90039 378.474 11.1442 379.643 16.0996H375.624V16.0527C375.624 14.6034 374.315 12.126 369.222 12.126C365.25 12.126 362.913 13.5753 362.913 16.1465C362.913 18.0165 364.128 18.9519 367.399 19.6064L372.773 20.6348C377.68 21.6633 379.876 23.6268 379.876 27.2266C379.876 31.9951 376.044 34.8007 369.362 34.8008C363.381 34.8008 360.016 32.5562 358.848 27.6006H362.913V27.6475C362.913 29.0967 364.175 31.5742 369.362 31.5742C373.428 31.5741 375.904 30.1249 375.904 27.5537C375.904 25.6839 374.596 24.796 371.231 24.0947L365.857 23.0195C361.044 21.991 358.895 20.0266 358.895 16.4268C358.895 11.7052 362.633 8.90042 369.222 8.90039ZM395.667 8.90039C402.723 8.90039 406.882 13.2013 406.882 20.915V22.458H388.284V22.7852C388.284 28.7692 390.574 31.5273 395.667 31.5273C400.62 31.5273 402.116 28.676 402.116 27.6475V27.6006H406.182C404.78 32.2757 401.088 34.8008 395.667 34.8008C388.377 34.8007 384.031 30.1253 384.031 21.8506C384.031 13.5757 388.377 8.90046 395.667 8.90039ZM71.5293 9.15723C75.3647 9.15724 78.1976 10.2036 80.2461 12.2529C82.2946 14.3024 83.3408 17.224 83.3408 21.0176V23.2412H66.2988V23.7646C66.2988 25.9885 66.7354 27.6888 67.5635 28.7354C68.4352 29.7818 69.7427 30.3057 71.5732 30.3057C73.4035 30.3056 74.1449 30.0004 74.8857 29.4336C75.6702 28.8232 76.0186 28.1687 76.0186 27.5146V27.3398H82.7305C82.0331 29.738 80.6822 31.5698 78.7646 32.8779C76.8469 34.1425 74.4494 34.7529 71.5293 34.7529V34.709C67.6938 34.709 64.6864 33.6194 62.5508 31.3955C60.4152 29.1717 59.3692 25.9887 59.3691 21.9336C59.3691 17.8784 60.4152 14.7385 62.5508 12.5146C64.6864 10.2908 67.6938 9.15723 71.5293 9.15723ZM117.511 9.15723C121.346 9.15723 124.398 10.2908 126.533 12.5146C128.712 14.7385 129.802 17.8784 129.802 21.9336C129.802 25.9887 128.712 29.1281 126.533 31.3955C124.398 33.6194 121.39 34.709 117.511 34.709C113.632 34.7089 110.624 33.6193 108.445 31.3955C106.266 29.1717 105.177 25.9886 105.177 21.9336C105.177 17.8784 106.266 14.7385 108.445 12.5146C110.624 10.2909 113.675 9.15729 117.511 9.15723ZM237.318 9.37305H245.31V12.4121H237.318V31.2998H245.31V34.3389H236.104C234.281 34.3389 233.347 33.3566 233.347 31.5801V12.4121H227.599V9.37305H233.347V2.26758H237.318V9.37305ZM197.819 5.53809H180.249V16.1973H194.174V19.5635H180.249V30.877H198.006V34.3369H176.137V2.07812H197.819V5.53809ZM352.532 34.335H348.56V9.37012H352.532V34.335ZM293.878 12.6416H287.663C283.457 12.6416 281.541 14.6516 281.541 19.5137V34.334H277.569V9.36914H281.168V13.3428H281.822C283.318 10.5845 285.56 9.13477 289.252 9.13477H293.878V12.6416ZM343.358 12.6416H337.144C332.938 12.6416 331.022 14.6516 331.022 19.5137V34.334H327.05V9.36914H330.648V13.3428H331.303C332.798 10.5845 335.041 9.13477 338.732 9.13477H343.358V12.6416ZM215.694 8.90039C221.161 8.9005 224.059 12.1262 224.059 18.4375V34.333H220.04V19.2324C220.04 14.3236 218.17 12.1729 213.918 12.1729C209.713 12.173 207.797 14.3237 207.797 19.2324V34.333H203.825V9.36816H207.423V13.1543H208.077C209.573 10.3494 212.003 8.90039 215.694 8.90039ZM23.0635 5.23242H6.80566V15.3926H19.3145V20.625H6.80566V34.2734H0.0507812V0H23.0635V5.23242ZM34.4824 34.2295H27.9014V9.59277H34.4824V34.2295ZM57.9307 14.3027H51.3936C49.9117 14.3027 48.8214 14.7389 48.124 15.5674C47.4269 16.3959 47.0782 17.7909 47.0781 19.709V34.2295H40.541V9.59277H46.5557V14.041H47.2529C47.8195 12.4277 48.6907 11.2501 49.7803 10.5088C50.9135 9.7239 52.3523 9.28809 54.0957 9.28809H57.9307V14.3027ZM103.651 4.36035H96.2422V9.63672H103.651V13.9531H96.2422V34.2295H89.6602V13.9531H85.4766V9.63672H89.6602V4.01172C89.6602 2.74718 90.0093 1.78752 90.6631 1.08984C91.3604 0.392314 92.3629 0.0439453 93.7139 0.0439453H103.651V4.36035ZM143.313 18.3574H143.836L149.415 9.59277H156.04L148.107 21.541L156.433 34.2295H149.72L143.662 24.7236H143.139L137.081 34.2295H130.456L138.78 21.541H138.824L130.892 9.59277H137.734L143.313 18.3574ZM309.658 12.1729C304.752 12.1729 302.462 14.931 302.462 20.8682V22.832C302.462 28.7694 304.752 31.5273 309.658 31.5273C314.565 31.5272 316.854 28.7693 316.854 22.832V20.8682C316.854 14.9312 314.564 12.173 309.658 12.1729ZM117.511 13.5615C115.68 13.5616 114.286 14.0848 113.414 15.1748C112.543 16.2213 112.064 17.878 112.063 20.1016V23.7207C112.063 25.9446 112.499 27.6459 113.414 28.6924C114.286 29.7387 115.68 30.2617 117.511 30.2617C119.341 30.2617 120.693 29.7387 121.564 28.6924C122.436 27.6023 122.916 25.9446 122.916 23.7207V20.1016C122.916 17.878 122.48 16.2213 121.564 15.1748C120.693 14.0847 119.341 13.5615 117.511 13.5615ZM260.279 12.126C255.513 12.1261 253.224 14.4641 252.943 19.6533H267.616C267.336 14.464 264.999 12.126 260.279 12.126ZM395.667 12.126C390.901 12.126 388.611 14.464 388.331 19.6533H403.004C402.724 14.464 400.387 12.126 395.667 12.126ZM71.4854 13.4307C69.7859 13.4307 68.522 13.9098 67.6504 14.8252C66.8223 15.6973 66.3427 17.1371 66.2119 19.0557H76.7598C76.629 17.1371 76.149 15.6973 75.2773 14.8252C74.4492 13.9097 73.1849 13.4307 71.4854 13.4307ZM34.7871 5.23242H27.6396V0H34.7871V5.23242ZM352.812 5.02246H348.046V1.00195H352.812V5.02246Z" />
</svg>
