<!-- This Source Code Form is subject to the terms of the Mozilla Public
   - License, v. 2.0. If a copy of the MPL was not distributed with this
   - file, You can obtain one at http://mozilla.org/MPL/2.0/. -->
<svg width="512" height="514" viewBox="0 0 512 514" fill="none" xmlns="http://www.w3.org/2000/svg">
<g clip-path="url(#clip0_823_48702)">
<path d="M482.003 167.544C471.476 142.243 450.197 114.929 433.445 106.288C445.357 129.357 453.623 154.123 457.961 179.739L458.023 180.146C430.648 111.913 384.257 84.4121 346.353 24.5387C344.405 21.49 342.488 18.4099 340.664 15.267C339.722 13.6326 338.842 11.9669 337.993 10.2695C336.422 7.22096 335.196 4.01514 334.379 0.683595C334.379 0.369298 334.159 0.0864319 333.845 0.0235723C333.688 -0.00785744 333.53 -0.00785744 333.373 0.0235723C333.342 0.0235723 333.279 0.0864319 333.248 0.0864319C333.217 0.0864319 333.122 0.149292 333.091 0.18072L333.185 0.0550023C272.4 35.6648 251.782 101.54 249.865 134.48C225.6 136.145 202.374 145.103 183.265 160.157C181.254 158.461 179.147 156.889 176.98 155.412C171.479 136.114 171.227 115.685 176.288 96.2607C153.973 107.073 134.141 122.41 118.048 141.269H117.923C108.336 129.105 108.997 89.0323 109.563 80.6721C106.734 81.8035 104.031 83.2492 101.485 84.9464C93.0308 90.9809 85.1111 97.7694 77.8187 105.218C69.5526 113.61 61.9785 122.662 55.2211 132.311C39.6635 154.375 28.6318 179.298 22.7541 205.636C22.6283 206.17 22.5344 206.704 22.4405 207.24C22.0002 209.376 20.3658 220.031 20.0513 222.357C20.0513 222.546 20.0203 222.702 19.9884 222.891C17.8827 233.923 16.5628 245.08 16.0596 256.269C16.0596 256.678 16.0596 257.086 16.0596 257.527C16.0596 391.165 124.429 499.504 258.068 499.504C375.929 499.504 476.63 414.612 496.555 298.448C496.965 295.336 497.309 292.225 497.656 289.113C502.654 247.909 497.247 206.107 481.972 167.512L482.003 167.544ZM203.097 356.971C204.229 357.504 205.297 358.101 206.46 358.636L206.617 358.731C205.423 358.165 204.26 357.568 203.066 356.971H203.097Z" fill="url(#paint0_linear_823_48702)"/>
<path d="M481.994 167.521C471.465 142.22 450.188 114.908 433.436 106.265C445.347 129.334 453.613 154.1 457.95 179.716C457.95 179.652 457.95 179.747 457.982 179.935V180.187C480.863 242.103 468.417 305.057 450.502 343.495C422.781 403.022 355.646 463.996 250.545 461.042C136.99 457.836 36.9815 373.573 18.3128 263.224C14.9181 245.811 18.3128 237.012 20.0092 222.837C17.6519 233.806 16.3639 244.995 16.0813 256.215C16.0813 256.624 16.0813 257.032 16.0813 257.473C16.0813 391.111 124.419 499.481 258.089 499.481C375.95 499.481 476.651 414.589 496.609 298.425C497.018 295.313 497.363 292.202 497.708 289.09C502.705 247.887 497.301 206.084 482.026 167.489L481.994 167.521Z" fill="url(#paint1_radial_823_48702)"/>
<path d="M481.994 167.521C471.465 142.22 450.188 114.908 433.436 106.265C445.347 129.334 453.613 154.1 457.95 179.716C457.95 179.652 457.95 179.747 457.982 179.935V180.187C480.863 242.103 468.417 305.057 450.502 343.495C422.781 403.022 355.646 463.996 250.545 461.042C136.99 457.836 36.9815 373.573 18.3128 263.224C14.9181 245.811 18.3128 237.012 20.0092 222.837C17.6519 233.806 16.3639 244.995 16.0813 256.215C16.0813 256.624 16.0813 257.032 16.0813 257.473C16.0813 391.111 124.419 499.481 258.089 499.481C375.95 499.481 476.651 414.589 496.609 298.425C497.018 295.313 497.363 292.202 497.708 289.09C502.705 247.887 497.301 206.084 482.026 167.489L481.994 167.521Z" fill="url(#paint2_radial_823_48702)"/>
<path d="M364.393 195.982C364.928 196.36 365.399 196.736 365.902 197.082C359.836 186.301 352.262 176.433 343.43 167.758C268.219 92.5474 323.724 4.67002 333.089 0.207017L333.184 0.0812988C272.399 35.6911 251.781 101.568 249.864 134.506C252.692 134.317 255.49 134.097 258.35 134.097C302.258 134.192 342.708 157.826 364.362 196.013L364.393 195.982Z" fill="url(#paint3_radial_823_48702)"/>
<path d="M171.981 152.084C173.679 153.152 175.344 154.283 176.979 155.415C171.479 136.117 171.227 115.688 176.288 96.2644C153.973 107.076 134.141 122.414 118.048 141.272C119.211 141.272 154.318 140.611 171.981 152.084Z" fill="url(#paint4_radial_823_48702)"/>
<mask id="mask0_823_48702" style="mask-type:alpha" maskUnits="userSpaceOnUse" x="131" y="134" width="252" height="251">
<circle cx="257.122" cy="259.418" r="125.388" fill="url(#paint5_radial_823_48702)"/>
</mask>
<g mask="url(#mask0_823_48702)">
<g filter="url(#filter0_i_823_48702)">
<circle cx="257.122" cy="259.521" r="125.388" fill="url(#paint6_radial_823_48702)"/>
<circle cx="257.122" cy="259.521" r="125.388" fill="white" fill-opacity="0.6" style="mix-blend-mode:screen"/>
</g>
<g opacity="0.3" filter="url(#filter1_f_823_48702)">
<path d="M290.187 138.066C290.187 138.066 290.187 138.066 290.187 138.066C287.542 137.538 284.902 137.016 282.253 136.568C274.118 135.151 265.851 134.66 257.652 135.638C257.652 135.638 257.652 135.638 257.652 135.638C217.44 140.07 185.562 169.071 173.443 200.499C172.593 202.605 171.813 204.725 171.101 206.856C169.014 212.495 164.892 216.7 159.158 218.272C153.452 219.86 146.603 218.686 140.601 215.283C134.599 211.879 130.075 206.604 128.509 200.892C126.915 195.164 128.407 189.468 132.174 184.783C132.174 184.783 132.174 184.783 132.174 184.783C134.122 182.223 136.152 179.748 138.257 177.36C169.97 141.147 217.25 127.344 257.645 132.169C257.645 132.169 257.645 132.169 257.645 132.169C266.004 133.065 274.312 133.934 282.387 135.911C285.013 136.541 287.613 137.263 290.187 138.066Z" fill="url(#paint7_radial_823_48702)"/>
</g>
<g opacity="0.08" filter="url(#filter2_f_823_48702)" style="mix-blend-mode:plus-lighter">
<path d="M338.384 296.256C336.063 300.553 333.415 304.633 330.482 308.457C312.823 331.672 284.569 344.653 257.033 343.531C236.384 342.914 216.44 334.705 201.463 320.903C184.822 305.749 172.455 284.554 170.564 260.516C169.624 249.073 171.114 237.22 175.32 226.25C177.022 221.794 179.161 217.491 181.706 213.443C181.751 213.371 182.971 214.037 185.36 215.452C183.015 213.968 180.67 212.485 178.324 211.001C180.622 212.56 181.751 213.371 181.706 213.443C179.161 217.491 176.866 221.698 174.855 226.055C169.907 236.761 166.7 248.431 165.781 260.516C163.604 285.553 172.743 312.961 192.397 330.789C209.777 346.865 233.618 355.7 257.033 354.891C288.422 354.281 318.007 335.888 332.339 309.676C334.748 305.363 336.772 300.865 338.384 296.256Z" fill="white"/>
</g>
<g opacity="0.18" filter="url(#filter3_f_823_48702)">
<path d="M282.115 371.196C388.92 281.758 249.891 226.517 249.891 133.848C299.396 105.232 398.515 156.741 398.515 242.588C398.515 311.266 310.22 361.18 282.115 371.196Z" fill="url(#paint8_linear_823_48702)"/>
</g>
<g opacity="0.15" filter="url(#filter4_f_823_48702)" style="mix-blend-mode:multiply">
<path d="M256.94 175.374C246.513 160.106 256.63 151.455 277.266 151.804C302.311 152.659 338.268 176.399 348.977 202.048C354.749 215.872 356.116 237.702 348.142 252.789C346.433 256.024 341.849 254.589 340.619 251.143C329.337 219.524 270.587 195.356 256.94 175.374Z" fill="url(#paint9_radial_823_48702)"/>
<path d="M255.623 157.892C259.357 153.939 266.955 151.861 277.258 152.034L277.258 152.035C289.721 152.461 304.929 158.586 318.366 167.819C331.803 177.052 343.432 189.368 348.763 202.137C351.637 209.018 353.416 217.902 353.483 226.946C353.549 235.992 351.902 245.181 347.938 252.681C347.142 254.187 345.687 254.611 344.258 254.247C342.818 253.881 341.425 252.714 340.837 251.065C337.999 243.112 332.184 235.644 324.864 228.608C317.544 221.571 308.703 214.953 299.799 208.705C290.887 202.452 281.925 196.579 274.323 191.01C266.72 185.44 260.518 180.203 257.131 175.244C254.538 171.447 253.238 168.083 253.046 165.185C252.855 162.297 253.765 159.858 255.623 157.892Z" stroke="url(#paint10_linear_823_48702)" stroke-opacity="0.3" stroke-width="0.462532" stroke-linecap="round"/>
</g>
<g opacity="0.61" filter="url(#filter5_f_823_48702)" style="mix-blend-mode:plus-lighter">
<path d="M227.83 137.375C227.366 137.515 226.97 137.843 226.726 138.274C226.482 138.706 226.411 139.206 226.531 139.676C226.651 140.145 226.953 140.55 227.374 140.812C227.795 141.074 228.299 141.172 228.774 141.072C228.774 141.072 228.774 141.072 228.774 141.072C231.391 140.523 234.005 140.023 236.62 139.606C244.659 138.289 252.707 137.989 260.833 138.382C300.082 139.94 336.635 162.367 355.538 194.757C356.816 196.911 358.023 199.106 359.156 201.34C360.225 203.431 362.068 204.973 364.33 205.597C366.59 206.222 369.085 205.879 371.215 204.671C373.344 203.464 374.92 201.499 375.543 199.239C376.169 196.976 375.792 194.604 374.546 192.613C374.546 192.613 374.546 192.613 374.546 192.613C373.02 190.155 371.417 187.756 369.74 185.417C344.811 150.166 302.206 129.788 260.848 131.739C252.416 132.051 243.889 133.11 235.717 135.188C233.057 135.85 230.432 136.591 227.83 137.375Z" fill="url(#paint11_radial_823_48702)"/>
</g>
<g opacity="0.61" filter="url(#filter6_f_823_48702)">
<path d="M227.702 136.871C227.086 137.035 226.558 137.44 226.234 137.992C225.91 138.545 225.816 139.201 225.974 139.818C226.132 140.435 226.528 140.965 227.078 141.295C227.627 141.625 228.284 141.727 228.903 141.576C228.903 141.576 228.903 141.576 228.903 141.576C231.492 140.944 234.075 140.341 236.663 139.814C244.609 138.161 252.678 137.458 260.835 137.836C260.835 137.836 260.835 137.836 260.835 137.836C301.183 139.34 333.065 170.866 344.476 202.032C345.306 204.132 346.073 206.241 346.784 208.356C348.951 214.161 353.213 218.489 359.125 220.11C365.008 221.747 372.057 220.544 378.23 217.044C384.404 213.543 389.055 208.111 390.67 202.222C392.314 196.317 390.788 190.437 386.918 185.598C386.918 185.598 386.918 185.598 386.918 185.598C384.969 183.021 382.927 180.535 380.802 178.142C348.38 141.667 301.104 130.388 260.846 132.286C260.847 132.286 260.847 132.286 260.847 132.286C252.445 132.582 243.939 133.238 235.674 134.979C232.987 135.531 230.33 136.17 227.702 136.871Z" fill="url(#paint12_radial_823_48702)"/>
</g>
<g opacity="0.2" filter="url(#filter7_f_823_48702)" style="mix-blend-mode:plus-lighter">
<path d="M217.012 176.003C230.382 162.447 256.468 159.397 268.735 164.164" stroke="url(#paint13_radial_823_48702)" stroke-width="24.2829" stroke-linecap="round"/>
</g>
</g>
<g opacity="0.15" filter="url(#filter8_if_823_48702)" style="mix-blend-mode:multiply">
<path d="M363.41 204.37C363.004 204.027 362.591 203.686 362.172 203.35C361.753 203.014 361.329 202.683 360.9 202.357C360.471 202.031 360.038 201.711 359.601 201.397C359.427 201.272 359.256 201.146 359.085 201.023C358.914 200.899 358.743 200.776 358.569 200.655C358.395 200.534 358.217 200.416 358.033 200.299C357 199.603 355.907 198.905 354.759 198.212C353.609 197.521 352.405 196.836 351.15 196.162C349.894 195.49 348.588 194.83 347.237 194.186C345.885 193.546 344.487 192.922 343.05 192.321C341.611 191.724 340.133 191.149 338.619 190.602C337.105 190.06 335.555 189.546 333.976 189.065C332.396 188.588 330.787 188.146 329.152 187.742C327.517 187.343 325.857 186.983 324.178 186.667C322.498 186.356 320.798 186.089 319.083 185.872C317.368 185.659 315.639 185.496 313.899 185.388C312.158 185.284 310.408 185.235 308.652 185.246C306.896 185.261 305.134 185.336 303.372 185.476C301.609 185.621 299.845 185.831 298.085 186.111C299.468 186.672 300.826 187.261 302.16 187.877C303.498 188.498 304.811 189.146 306.1 189.819C307.392 190.498 308.659 191.203 309.902 191.933C311.148 192.667 312.368 193.427 313.564 194.212C314.763 195.001 315.937 195.815 317.085 196.652C318.236 197.495 319.362 198.36 320.463 199.248C321.565 200.142 322.643 201.058 323.695 201.996C324.748 202.938 325.777 203.903 326.779 204.888C327.784 205.879 328.762 206.89 329.715 207.921C330.669 208.957 331.597 210.014 332.499 211.089C333.402 212.169 334.279 213.269 335.13 214.387C335.981 215.509 336.806 216.65 337.606 217.808C338.405 218.971 339.178 220.151 339.924 221.348C340.671 222.549 341.391 223.766 342.084 224.999C342.777 226.236 343.444 227.489 344.083 228.756C344.722 230.027 345.334 231.313 345.919 232.612C346.503 233.916 347.061 235.232 347.59 236.561C348.12 237.894 348.621 239.24 349.095 240.596C349.569 241.956 350.014 243.328 350.432 244.709C350.849 246.094 351.238 247.49 351.599 248.894C351.959 250.301 352.292 251.718 352.595 253.142C352.898 254.57 353.173 256.005 353.419 257.447C353.664 258.891 353.88 260.342 354.069 261.799C354.255 263.258 354.413 264.723 354.543 266.191C354.672 267.662 354.771 269.137 354.842 270.614C354.912 272.094 354.953 273.577 354.965 275.061C354.975 276.547 354.957 278.034 354.91 279.522C354.861 281.011 354.784 282.5 354.678 283.988C354.57 285.477 354.433 286.965 354.268 288.451C354.101 289.938 353.905 291.422 353.68 292.903C353.454 294.383 353.199 295.86 352.915 297.332C352.63 298.805 352.316 300.272 351.973 301.733C351.629 303.194 351.256 304.648 350.855 306.094C350.452 307.54 350.021 308.978 349.561 310.408C349.1 311.836 348.61 313.256 348.092 314.664C347.573 316.073 347.026 317.47 346.451 318.856C345.874 320.241 345.27 321.614 344.637 322.974C344.004 324.333 343.342 325.678 342.653 327.009C341.963 328.339 341.246 329.654 340.501 330.953C339.755 332.251 338.982 333.533 338.182 334.799C337.381 336.062 336.553 337.308 335.698 338.537C334.842 339.762 333.96 340.971 333.051 342.159C332.142 343.345 331.206 344.513 330.244 345.659C329.282 346.803 328.294 347.927 327.279 349.028C326.265 350.128 325.225 351.205 324.159 352.26C323.094 353.312 322.003 354.341 320.886 355.346C319.77 356.349 318.629 357.327 317.463 358.28C316.297 359.23 315.107 360.156 313.892 361.055C312.678 361.951 311.44 362.821 310.177 363.664C308.915 364.504 307.63 365.316 306.32 366.101C305.012 366.882 303.68 367.634 302.325 368.358C300.972 369.078 299.595 369.769 298.195 370.43C296.798 371.087 295.377 371.714 293.933 372.311C292.493 372.903 291.03 373.464 289.544 373.994C288.062 374.519 286.557 375.012 285.03 375.473C283.508 375.929 281.963 376.353 280.397 376.742C278.836 377.128 277.252 377.48 275.648 377.797C274.049 378.109 272.429 378.388 270.789 378.63C269.154 378.868 267.499 379.071 265.823 379.237C264.154 379.4 262.466 379.525 260.758 379.613C259.057 379.697 257.337 379.744 255.598 379.753C253.867 379.757 252.118 379.723 250.351 379.65C248.592 379.573 246.816 379.458 245.023 379.302C243.239 379.143 241.438 378.944 239.621 378.704C238.149 378.515 236.684 378.293 235.227 378.04C233.777 377.784 232.334 377.497 230.846 377.237C229.299 377.041 227.757 376.811 226.222 376.549C224.686 376.287 223.156 375.991 221.632 375.664C220.109 375.336 218.592 374.976 217.083 374.583C215.573 374.191 214.071 373.766 212.578 373.308C211.084 372.851 209.599 372.362 208.123 371.841C207.312 371.531 206.502 371.214 205.694 370.891C204.886 370.567 204.08 370.236 203.279 369.898C202.478 369.56 201.681 369.215 200.892 368.863C200.434 368.65 199.972 368.436 199.509 368.221C199.045 368.005 198.581 367.786 198.118 367.563C197.655 367.34 197.193 367.112 196.734 366.878L196.894 366.974C197.292 367.246 197.727 367.527 198.197 367.815C198.667 368.104 199.173 368.4 199.714 368.702C200.254 369.005 200.83 369.313 201.44 369.627C202.05 369.94 202.693 370.258 203.371 370.58C204.048 370.901 204.758 371.225 205.501 371.551C206.244 371.878 207.019 372.206 207.826 372.534C208.633 372.862 209.472 373.19 210.342 373.518C211.211 373.845 212.112 374.171 213.042 374.495C213.973 374.818 214.934 375.139 215.924 375.455C216.914 375.772 217.933 376.084 218.981 376.391C220.029 376.698 221.105 376.999 222.209 377.293C223.313 377.587 224.444 377.874 225.603 378.153C226.761 378.431 227.947 378.7 229.158 378.96C230.369 379.22 231.607 379.469 232.87 379.707C234.132 379.945 235.366 380.237 236.6 380.545C237.84 380.852 239.105 381.148 240.396 381.431C241.692 381.712 243.013 381.981 244.36 382.235C245.712 382.488 247.088 382.726 248.49 382.948C249.897 383.167 251.328 383.37 252.783 383.556C254.244 383.738 255.729 383.903 257.238 384.048C258.751 384.19 260.289 384.312 261.85 384.413C263.415 384.51 265.004 384.586 266.616 384.638C268.232 384.686 269.871 384.712 271.532 384.711C273.198 384.707 274.886 384.677 276.595 384.62C278.308 384.56 280.043 384.471 281.798 384.354C283.557 384.232 285.337 384.081 287.136 383.898C288.939 383.712 290.762 383.494 292.603 383.242C294.448 382.986 296.312 382.697 298.193 382.373C300.077 382.044 301.979 381.68 303.898 381.279C305.819 380.873 307.756 380.43 309.709 379.948C311.664 379.461 313.634 378.935 315.619 378.368C317.605 377.796 319.604 377.184 321.617 376.529C323.63 375.868 325.655 375.165 327.692 374.418C329.729 373.666 331.777 372.869 333.835 372.027C335.891 371.179 337.957 370.286 340.031 369.345C342.103 368.399 344.182 367.405 346.268 366.364C348.35 365.316 350.438 364.22 352.531 363.074C354.619 361.924 356.711 360.723 358.805 359.471C360.893 358.215 362.983 356.908 365.074 355.548C367.157 354.185 369.239 352.769 371.319 351.301C373.39 349.83 375.459 348.306 377.522 346.728C379.575 345.148 381.623 343.515 383.663 341.828C385.691 340.14 387.711 338.399 389.722 336.603L389.857 336.273C389.931 336.1 390.035 335.855 390.164 335.541C390.293 335.226 390.449 334.842 390.626 334.392C390.803 333.942 391.002 333.425 391.22 332.845C391.436 332.264 391.671 331.62 391.92 330.916C392.169 330.211 392.432 329.446 392.704 328.624C392.976 327.801 393.258 326.921 393.546 325.987C393.833 325.052 394.127 324.062 394.422 323.022C394.715 321.98 395.011 320.888 395.305 319.747C395.597 318.606 395.887 317.416 396.171 316.181C396.453 314.946 396.728 313.666 396.994 312.344C397.258 311.021 397.511 309.656 397.751 308.253C397.988 306.849 398.21 305.407 398.415 303.929C398.617 302.45 398.8 300.937 398.962 299.391C399.121 297.846 399.258 296.268 399.369 294.661C399.477 293.055 399.559 291.419 399.611 289.758C399.661 288.098 399.68 286.413 399.666 284.704C399.649 282.997 399.598 281.268 399.51 279.519C399.419 277.772 399.291 276.006 399.122 274.224C398.949 272.444 398.736 270.648 398.479 268.839C398.218 267.033 397.913 265.214 397.56 263.385C397.203 261.559 396.799 259.724 396.344 257.881C395.885 256.042 395.375 254.197 394.811 252.348C394.243 250.503 393.62 248.653 392.939 246.804C392.255 244.958 391.513 243.112 390.709 241.268C389.902 239.429 389.034 237.592 388.1 235.76C387.163 233.933 386.161 232.112 385.091 230.298C384.017 228.49 382.875 226.691 381.661 224.901C380.444 223.119 379.155 221.347 377.79 219.589C376.422 217.838 374.979 216.101 373.456 214.381C371.931 212.669 370.326 210.974 368.639 209.298C366.949 207.632 365.176 205.986 363.317 204.363L363.41 204.37Z" fill="url(#paint14_radial_823_48702)"/>
</g>
<g opacity="0.2" filter="url(#filter9_f_823_48702)" style="mix-blend-mode:plus-darker">
<path d="M258.336 214.467C257.959 220.334 236.675 238.789 229.223 238.789C160.37 238.789 149.209 281.311 149.209 281.311C152.259 315.563 176.688 343.793 206.241 358.722M206.241 358.722C205.077 358.199 204.009 357.616 202.877 357.095C204.04 357.678 205.203 358.262 206.398 358.815L206.241 358.722ZM206.241 358.722C207.592 359.399 208.976 360.013 210.329 360.626C212.655 361.64 215.044 362.593 217.433 363.484C227.588 366.986 238.183 368.982 248.935 369.412C326.014 372.944 363.576 314.078 357.965 260.001" stroke="url(#paint15_linear_823_48702)" stroke-width="5.08785" stroke-linecap="round"/>
</g>
<g opacity="0.12" filter="url(#filter10_f_823_48702)" style="mix-blend-mode:plus-lighter">
<ellipse cx="257.789" cy="198.079" rx="71.1143" ry="34.6899" fill="white" fill-opacity="0.5"/>
</g>
<g opacity="0.5" filter="url(#filter11_f_823_48702)">
<path d="M225.082 259.755C226.308 259.803 227.286 260.693 227.432 261.803C227.519 262.463 227.629 263.124 227.763 263.783C227.897 264.447 228.054 265.11 228.235 265.771C228.415 266.436 228.619 267.099 228.844 267.759C229.071 268.423 229.319 269.084 229.589 269.74C229.86 270.401 230.151 271.057 230.465 271.707C230.779 272.361 231.113 273.01 231.468 273.652C231.823 274.298 232.198 274.936 232.594 275.568C232.989 276.202 233.403 276.828 233.837 277.447C234.27 278.067 234.722 278.678 235.191 279.28C235.661 279.885 236.148 280.479 236.652 281.063C237.156 281.649 237.677 282.224 238.213 282.788C238.75 283.352 239.301 283.906 239.868 284.446C240.433 284.988 241.014 285.517 241.608 286.032C242.202 286.549 242.809 287.052 243.428 287.54C244.047 288.029 244.678 288.504 245.321 288.963C245.961 289.422 246.614 289.866 247.277 290.294C247.938 290.722 248.61 291.134 249.29 291.529C249.968 291.923 250.656 292.302 251.351 292.661C252.044 293.021 252.745 293.363 253.453 293.687C254.158 294.011 254.87 294.315 255.587 294.601C256.302 294.887 257.021 295.153 257.746 295.4C258.467 295.646 259.191 295.872 259.92 296.078C260.644 296.284 261.372 296.469 262.102 296.634C262.828 296.798 263.555 296.942 264.283 297.063C265.007 297.185 265.731 297.286 266.455 297.365C267.674 297.499 268.651 298.389 268.703 299.506L268.725 299.977L268.82 302.432L268.895 304.897L268.951 307.371L268.988 309.85L269.004 312.333L269.001 314.817L268.979 317.299L268.937 319.777L268.876 322.248L268.796 324.711L268.695 327.162L268.576 329.6L268.438 332.021L268.28 334.423L268.104 336.805L267.91 339.164L267.697 341.497L267.467 343.803L267.218 346.079L266.952 348.323L266.669 350.534L266.369 352.709L266.052 354.847L265.719 356.945L265.371 359.002L265.007 361.017C264.779 362.2 263.766 363.132 262.462 363.311C262.38 363.322 262.298 363.333 262.215 363.344C261.401 363.449 260.585 363.543 259.767 363.626C258.941 363.706 258.115 363.775 257.285 363.832C256.45 363.886 255.613 363.929 254.774 363.961C253.93 363.989 253.083 364.007 252.236 364.013C251.382 364.015 250.528 364.007 249.673 363.986C248.812 363.963 247.95 363.928 247.088 363.881C246.221 363.832 245.353 363.771 244.485 363.698C243.611 363.622 242.739 363.534 241.865 363.435C240.988 363.333 240.11 363.219 239.233 363.093C238.352 362.964 237.471 362.824 236.59 362.672C235.706 362.517 234.824 362.35 233.942 362.172C233.055 361.991 232.171 361.797 231.288 361.592C230.402 361.385 229.517 361.166 228.634 360.935C227.748 360.701 226.864 360.455 225.983 360.198C225.098 359.938 224.216 359.667 223.337 359.384C222.454 359.098 221.575 358.802 220.699 358.493C219.82 358.182 218.945 357.859 218.073 357.526C217.199 357.189 216.329 356.842 215.463 356.483C214.594 356.121 213.73 355.749 212.87 355.366C212.009 354.98 211.152 354.583 210.3 354.174C209.445 353.765 208.597 353.343 207.753 352.912C206.908 352.478 206.068 352.033 205.233 351.578C204.398 351.121 203.569 350.652 202.746 350.175C201.921 349.695 201.103 349.204 200.291 348.704C199.479 348.201 198.673 347.689 197.874 347.167C197.074 346.643 196.282 346.109 195.496 345.565C194.711 345.02 193.932 344.465 193.162 343.901C192.391 343.335 191.628 342.761 190.873 342.177C190.118 341.592 189.372 340.997 188.633 340.394C187.895 339.79 187.165 339.177 186.444 338.554C185.724 337.932 185.013 337.301 184.31 336.661C183.608 336.021 182.916 335.373 182.233 334.716C181.551 334.059 180.877 333.395 180.214 332.722C179.553 332.049 178.9 331.368 178.258 330.681C177.617 329.992 176.986 329.297 176.365 328.595C175.747 327.893 175.138 327.183 174.54 326.468C173.943 325.752 173.357 325.029 172.782 324.301C172.209 323.573 171.647 322.838 171.095 322.098C170.546 321.358 170.008 320.613 169.481 319.861C168.957 319.111 168.443 318.355 167.941 317.594C167.442 316.834 166.955 316.069 166.478 315.299C166.004 314.53 165.543 313.756 165.092 312.978C164.645 312.201 164.209 311.42 163.786 310.635C163.365 309.851 162.955 309.064 162.559 308.272C162.166 307.483 161.784 306.69 161.415 305.893C161.048 305.099 160.694 304.301 160.353 303.501C160.014 302.702 159.689 301.901 159.375 301.097C159.065 300.296 158.767 299.492 158.482 298.686C158.2 297.882 157.93 297.077 157.674 296.269C157.42 295.465 157.18 294.659 156.952 293.851C156.727 293.047 156.516 292.24 156.316 291.433C156.12 290.63 155.937 289.825 155.767 289.019C155.6 288.217 155.446 287.414 155.305 286.611C155.167 285.812 155.042 285.012 154.93 284.212C154.821 283.416 154.725 282.621 154.642 281.825C154.562 281.034 154.495 280.243 154.44 279.452C154.389 278.667 154.351 277.882 154.325 277.097C154.303 276.318 154.293 275.539 154.297 274.761C154.303 273.989 154.322 273.218 154.354 272.448C154.388 271.684 154.435 270.921 154.495 270.16C154.557 269.404 154.632 268.651 154.721 267.899C154.811 267.153 154.914 266.409 155.031 265.667C155.043 265.592 155.055 265.518 155.067 265.443C155.262 264.255 156.286 263.331 157.584 263.124L159.794 262.792L162.052 262.474L164.354 262.171L166.7 261.883L169.087 261.609L171.513 261.351L173.976 261.109L176.473 260.882L179.003 260.672L181.564 260.478L184.153 260.301L186.766 260.14L189.403 259.997L192.06 259.871L194.734 259.762L197.424 259.671L200.126 259.598L202.839 259.541L205.558 259.503L208.282 259.483L211.007 259.481L213.731 259.496L216.452 259.529L219.166 259.58L221.872 259.649L224.565 259.735L225.082 259.755Z" fill="url(#paint16_radial_823_48702)"/>
</g>
<path d="M18.3091 263.238C36.9787 373.587 136.987 457.85 250.542 461.056C355.612 464.042 422.777 403.037 450.498 343.51C468.413 305.039 480.891 242.086 458.041 180.201V179.949C458.041 179.761 458.01 179.667 458.01 179.73L458.072 180.138C466.653 236.209 438.146 290.487 393.547 327.228L393.421 327.544C306.581 398.26 223.482 370.225 206.666 358.722C205.472 358.156 204.309 357.558 203.147 356.961C152.513 332.76 131.613 286.622 136.076 247.083C111.53 247.428 89.057 233.316 78.7482 211.033C78.7482 211.033 117.124 183.657 167.725 207.45C196.389 220.463 228.981 221.752 258.589 211.033C258.494 209.053 216.379 192.301 199.973 176.115C191.204 167.472 187.023 163.292 183.315 160.181C181.334 158.483 179.229 156.911 177.06 155.434C175.614 154.46 174.012 153.391 172.063 152.103C154.399 140.632 119.323 141.291 118.161 141.291H118.035C108.449 129.128 109.109 89.0551 109.675 80.6948C106.846 81.8263 104.143 83.2721 101.597 84.9692C93.1436 91.0037 85.223 97.7921 77.9315 105.241C69.6654 113.633 62.0904 122.684 55.333 132.334C39.7754 154.397 28.7437 179.321 22.8669 205.659C22.7411 206.194 14.1287 243.784 18.372 263.3L18.3091 263.238Z" fill="url(#paint17_radial_823_48702)"/>
<path d="M343.424 167.773C352.256 176.447 359.831 186.317 365.896 197.098C367.154 198.039 368.379 199.015 369.542 200.083C424.387 250.622 395.66 322.155 393.523 327.246C438.09 290.536 466.597 236.226 458.049 180.156C430.642 111.953 384.251 84.4529 346.348 24.5794C344.399 21.5307 342.482 18.4508 340.659 15.3078C339.716 13.6734 338.836 12.0076 337.987 10.3104C336.415 7.26173 335.189 4.0559 334.374 0.724367C334.374 0.41007 334.153 0.127203 333.839 0.0643439C333.682 0.032914 333.524 0.032914 333.367 0.0643439C333.335 0.0643439 333.272 0.127203 333.241 0.127203C333.21 0.127203 333.116 0.190062 333.085 0.221492C323.718 4.6845 268.213 92.5617 343.424 167.773Z" fill="url(#paint18_linear_823_48702)" fill-opacity="0.8"/>
<path d="M343.424 167.773C352.256 176.447 359.831 186.317 365.896 197.098C367.154 198.039 368.379 199.015 369.542 200.083C424.387 250.622 395.66 322.155 393.523 327.246C438.09 290.536 466.597 236.226 458.049 180.156C430.642 111.953 384.251 84.4529 346.348 24.5794C344.399 21.5307 342.482 18.4508 340.659 15.3078C339.716 13.6734 338.836 12.0076 337.987 10.3104C336.415 7.26173 335.189 4.0559 334.374 0.724367C334.374 0.41007 334.153 0.127203 333.839 0.0643439C333.682 0.032914 333.524 0.032914 333.367 0.0643439C333.335 0.0643439 333.272 0.127203 333.241 0.127203C333.21 0.127203 333.116 0.190062 333.085 0.221492C323.718 4.6845 268.213 92.5617 343.424 167.773Z" fill="url(#paint19_linear_823_48702)" fill-opacity="0.8"/>
<path d="M306.575 181.923C328.671 178.264 351.498 187.129 364.29 196.124L364.295 196.128C364.822 196.47 365.287 196.841 365.794 197.222C366.924 198.069 368.026 198.969 369.082 199.895H369.006L369.332 200.196C396.724 225.438 403.244 255.903 402.647 280.701C402.051 305.503 394.336 324.628 393.271 327.165L393.27 327.168L393.161 327.439C349.785 362.749 307.352 373.395 273.666 373.783C243.1 374.136 219.741 366.044 209.411 360.274C209.744 360.428 210.075 360.583 210.405 360.737L210.407 360.738C212.737 361.776 215.13 362.752 217.52 363.664V363.665L217.524 363.666C227.692 367.255 238.3 369.3 249.066 369.741V369.742C309.468 372.575 345.534 336.463 355.59 294.19C365.606 252.081 349.817 203.844 306.575 181.923Z" fill="url(#paint20_radial_823_48702)" stroke="url(#paint21_linear_823_48702)" stroke-width="0.346899"/>
<path d="M149.444 279.385C149.444 279.385 160.602 237.773 229.433 237.773C236.881 237.773 258.16 216.997 258.537 210.994C228.961 221.711 196.337 220.424 167.674 207.411C117.103 183.619 78.6965 210.994 78.6965 210.994C89.0054 233.278 111.478 247.421 136.024 247.044C131.53 286.614 152.462 332.753 203.094 356.922C204.226 357.456 205.295 358.053 206.458 358.588C176.914 343.313 152.494 314.428 149.444 279.385Z" fill="url(#paint22_radial_823_48702)"/>
<path d="M333.376 0.0235723C333.533 -0.00785744 333.691 -0.00785744 333.847 0.0235723C334.163 0.0864785 334.382 0.369307 334.382 0.683494C335.2 4.01504 336.425 7.22105 337.997 10.2696C338.844 11.9669 339.725 13.6327 340.669 15.2672C342.491 18.41 344.408 21.4902 346.357 24.5389C384.246 84.389 430.614 111.892 457.994 180.067V179.958H457.997L457.963 179.739C453.626 154.123 445.36 129.357 433.448 106.288C450.2 114.93 471.478 142.242 482.008 167.544H481.913C497.188 206.139 502.593 247.941 497.596 289.145C497.25 292.256 496.904 295.367 496.496 298.48C476.57 414.643 375.868 499.535 258.008 499.535C124.37 499.535 16 391.197 16 257.558V256.301C16.5342 244.986 17.7285 233.734 19.5835 222.546C19.8971 220.219 21.9407 209.407 22.38 207.27C22.4748 206.736 22.5686 206.202 22.6944 205.668C28.5722 179.33 39.6041 154.406 55.1617 132.342C61.9191 122.693 69.4932 113.642 77.7592 105.251C85.0508 97.8013 92.9713 91.0124 101.426 84.978C103.972 83.2807 106.675 81.8348 109.503 80.7034C108.937 89.0636 108.277 129.136 117.864 141.3H117.989C134.081 122.443 153.914 107.104 176.228 96.2929C171.168 115.716 171.419 136.145 176.92 155.443C179.088 156.889 181.162 158.492 183.174 160.189C186.883 163.301 191.063 167.481 199.832 176.123C216.238 192.31 258.355 209.062 258.448 211.043C258.071 217.045 236.794 237.82 229.344 237.821C160.513 237.821 149.356 279.433 149.356 279.433C152.405 314.477 176.826 343.361 206.369 358.636C205.206 358.101 204.138 357.504 203.006 356.971C204.17 357.568 205.332 358.165 206.526 358.731L206.369 358.636C207.72 359.328 209.104 359.956 210.456 360.584C212.781 361.621 215.169 362.596 217.558 363.507C227.71 367.091 238.301 369.133 249.05 369.573C369.677 375.231 393.029 225.374 306.001 181.844C328.317 177.947 351.449 186.904 364.365 195.987C364.339 195.94 364.311 195.893 364.284 195.846L365.917 197.039C354.755 177.614 338.541 161.462 319.067 150.376C302.388 140.767 283.435 135.094 263.642 134.197C263.607 134.195 263.571 134.194 263.536 134.192C263.515 134.191 263.494 134.19 263.473 134.189C261.369 134.084 259.252 134.031 257.122 134.031C254.692 134.031 252.279 134.101 249.883 134.237C251.887 101.218 272.551 35.5777 333.188 0.0550778L333.093 0.180761C333.125 0.149335 333.219 0.0865961 333.25 0.0865833C333.282 0.0865833 333.345 0.0237367 333.376 0.0235723Z" fill="url(#paint23_linear_823_48702)"/>
<g opacity="0.6" filter="url(#filter12_f_823_48702)">
<path d="M342.806 281.162C341.297 284.843 339.58 288.401 337.672 291.821C320.521 322.784 287.743 341.44 254.694 341.175C254.694 341.175 254.694 341.175 254.694 341.175C221.644 341.44 188.867 322.784 171.716 291.821C169.808 288.401 168.09 284.843 166.581 281.162C167.245 285.084 168.192 288.982 169.417 292.814C179.95 327.707 216.172 354.991 254.694 354.358C254.694 354.358 254.694 354.358 254.694 354.358C293.216 354.991 329.438 327.708 339.971 292.814C341.196 288.982 342.142 285.084 342.806 281.162Z" fill="url(#paint24_linear_823_48702)"/>
</g>
</g>
<defs>
<filter id="filter0_i_823_48702" x="131.734" y="134.134" width="250.776" height="252.626" filterUnits="userSpaceOnUse" color-interpolation-filters="sRGB">
<feFlood flood-opacity="0" result="BackgroundImageFix"/>
<feBlend mode="normal" in="SourceGraphic" in2="BackgroundImageFix" result="shape"/>
<feColorMatrix in="SourceAlpha" type="matrix" values="0 0 0 0 0 0 0 0 0 0 0 0 0 0 0 0 0 0 127 0" result="hardAlpha"/>
<feOffset dy="1.85013"/>
<feGaussianBlur stdDeviation="9.36628"/>
<feComposite in2="hardAlpha" operator="arithmetic" k2="-1" k3="1"/>
<feColorMatrix type="matrix" values="0 0 0 0 1 0 0 0 0 0.638235 0 0 0 0 0.196078 0 0 0 0.35 0"/>
<feBlend mode="plus-darker" in2="shape" result="effect1_innerShadow_823_48702"/>
</filter>
<filter id="filter1_f_823_48702" x="122.511" y="125.874" width="173.041" height="98.4612" filterUnits="userSpaceOnUse" color-interpolation-filters="sRGB">
<feFlood flood-opacity="0" result="BackgroundImageFix"/>
<feBlend mode="normal" in="SourceGraphic" in2="BackgroundImageFix" result="shape"/>
<feGaussianBlur stdDeviation="2.68269" result="effect1_foregroundBlur_823_48702"/>
</filter>
<filter id="filter2_f_823_48702" x="154.18" y="199.715" width="195.49" height="166.513" filterUnits="userSpaceOnUse" color-interpolation-filters="sRGB">
<feFlood flood-opacity="0" result="BackgroundImageFix"/>
<feBlend mode="normal" in="SourceGraphic" in2="BackgroundImageFix" result="shape"/>
<feGaussianBlur stdDeviation="5.64289" result="effect1_foregroundBlur_823_48702"/>
</filter>
<filter id="filter3_f_823_48702" x="211.683" y="87.6919" width="225.041" height="321.712" filterUnits="userSpaceOnUse" color-interpolation-filters="sRGB">
<feFlood flood-opacity="0" result="BackgroundImageFix"/>
<feBlend mode="normal" in="SourceGraphic" in2="BackgroundImageFix" result="shape"/>
<feGaussianBlur stdDeviation="19.1041" result="effect1_foregroundBlur_823_48702"/>
</filter>
<filter id="filter4_f_823_48702" x="249.552" y="148.556" width="107.402" height="109.282" filterUnits="userSpaceOnUse" color-interpolation-filters="sRGB">
<feFlood flood-opacity="0" result="BackgroundImageFix"/>
<feBlend mode="normal" in="SourceGraphic" in2="BackgroundImageFix" result="shape"/>
<feGaussianBlur stdDeviation="0" result="effect1_foregroundBlur_823_48702"/>
</filter>
<filter id="filter5_f_823_48702" x="221.109" y="126.245" width="160.097" height="85.0232" filterUnits="userSpaceOnUse" color-interpolation-filters="sRGB">
<feFlood flood-opacity="0" result="BackgroundImageFix"/>
<feBlend mode="normal" in="SourceGraphic" in2="BackgroundImageFix" result="shape"/>
<feGaussianBlur stdDeviation="2.68269" result="effect1_foregroundBlur_823_48702"/>
</filter>
<filter id="filter6_f_823_48702" x="220.534" y="126.719" width="176.156" height="99.4776" filterUnits="userSpaceOnUse" color-interpolation-filters="sRGB">
<feFlood flood-opacity="0" result="BackgroundImageFix"/>
<feBlend mode="normal" in="SourceGraphic" in2="BackgroundImageFix" result="shape"/>
<feGaussianBlur stdDeviation="2.68269" result="effect1_foregroundBlur_823_48702"/>
</filter>
<filter id="filter7_f_823_48702" x="199.505" y="144.548" width="86.7404" height="48.962" filterUnits="userSpaceOnUse" color-interpolation-filters="sRGB">
<feFlood flood-opacity="0" result="BackgroundImageFix"/>
<feBlend mode="normal" in="SourceGraphic" in2="BackgroundImageFix" result="shape"/>
<feGaussianBlur stdDeviation="2.68269" result="effect1_foregroundBlur_823_48702"/>
</filter>
<filter id="filter8_if_823_48702" x="195.347" y="183.857" width="205.711" height="202.242" filterUnits="userSpaceOnUse" color-interpolation-filters="sRGB">
<feFlood flood-opacity="0" result="BackgroundImageFix"/>
<feBlend mode="normal" in="SourceGraphic" in2="BackgroundImageFix" result="shape"/>
<feColorMatrix in="SourceAlpha" type="matrix" values="0 0 0 0 0 0 0 0 0 0 0 0 0 0 0 0 0 0 127 0" result="hardAlpha"/>
<feOffset dx="2.77519" dy="0.693798"/>
<feGaussianBlur stdDeviation="0.693798"/>
<feComposite in2="hardAlpha" operator="arithmetic" k2="-1" k3="1"/>
<feColorMatrix type="matrix" values="0 0 0 0 1 0 0 0 0 0.766667 0 0 0 0 0 0 0 0 0.25 0"/>
<feBlend mode="plus-lighter" in2="shape" result="effect1_innerShadow_823_48702"/>
<feGaussianBlur stdDeviation="0" result="effect2_foregroundBlur_823_48702"/>
</filter>
<filter id="filter9_f_823_48702" x="131.326" y="196.614" width="245.04" height="190.803" filterUnits="userSpaceOnUse" color-interpolation-filters="sRGB">
<feFlood flood-opacity="0" result="BackgroundImageFix"/>
<feBlend mode="normal" in="SourceGraphic" in2="BackgroundImageFix" result="shape"/>
<feGaussianBlur stdDeviation="3.16835" result="effect1_foregroundBlur_823_48702"/>
</filter>
<filter id="filter10_f_823_48702" x="147.752" y="124.467" width="220.073" height="147.224" filterUnits="userSpaceOnUse" color-interpolation-filters="sRGB">
<feFlood flood-opacity="0" result="BackgroundImageFix"/>
<feBlend mode="normal" in="SourceGraphic" in2="BackgroundImageFix" result="shape"/>
<feGaussianBlur stdDeviation="19.461" result="effect1_foregroundBlur_823_48702"/>
</filter>
<filter id="filter11_f_823_48702" x="128.766" y="233.95" width="165.769" height="155.593" filterUnits="userSpaceOnUse" color-interpolation-filters="sRGB">
<feFlood flood-opacity="0" result="BackgroundImageFix"/>
<feBlend mode="normal" in="SourceGraphic" in2="BackgroundImageFix" result="shape"/>
<feGaussianBlur stdDeviation="12.7653" result="effect1_foregroundBlur_823_48702"/>
</filter>
<filter id="filter12_f_823_48702" x="154.024" y="268.604" width="201.34" height="98.322" filterUnits="userSpaceOnUse" color-interpolation-filters="sRGB">
<feFlood flood-opacity="0" result="BackgroundImageFix"/>
<feBlend mode="normal" in="SourceGraphic" in2="BackgroundImageFix" result="shape"/>
<feGaussianBlur stdDeviation="3.52103" result="effect1_foregroundBlur_823_48702"/>
</filter>
<linearGradient id="paint0_linear_823_48702" x1="458.314" y1="77.0575" x2="70.1761" y2="449.031" gradientUnits="userSpaceOnUse">
<stop offset="0.05" stop-color="#FFF44F"/>
<stop offset="0.37" stop-color="#FF980E"/>
<stop offset="0.53" stop-color="#FF3647"/>
<stop offset="0.7" stop-color="#E31587"/>
</linearGradient>
<radialGradient id="paint1_radial_823_48702" cx="0" cy="0" r="1" gradientUnits="userSpaceOnUse" gradientTransform="translate(429.931 104.739) scale(496.422 504.757)">
<stop offset="0.13" stop-color="#FFBD4F"/>
<stop offset="0.28" stop-color="#FF980E"/>
<stop offset="0.47" stop-color="#FF3750"/>
<stop offset="0.78" stop-color="#EB0878"/>
<stop offset="0.86" stop-color="#E50080"/>
</radialGradient>
<radialGradient id="paint2_radial_823_48702" cx="0" cy="0" r="1" gradientUnits="userSpaceOnUse" gradientTransform="translate(255.327 262.391) scale(508.817 504.757)">
<stop offset="0.3" stop-color="#960E18"/>
<stop offset="0.35" stop-color="#B11927" stop-opacity="0.74"/>
<stop offset="0.43" stop-color="#DB293D" stop-opacity="0.34"/>
<stop offset="0.5" stop-color="#F5334B" stop-opacity="0.09"/>
<stop offset="0.53" stop-color="#FF3750" stop-opacity="0"/>
</radialGradient>
<radialGradient id="paint3_radial_823_48702" cx="0" cy="0" r="1" gradientUnits="userSpaceOnUse" gradientTransform="translate(318.056 -18.4744) scale(162.049 275.199)">
<stop offset="0.13" stop-color="#FFF44F"/>
<stop offset="0.53" stop-color="#FF980E"/>
</radialGradient>
<radialGradient id="paint4_radial_823_48702" cx="0" cy="0" r="1" gradientUnits="userSpaceOnUse" gradientTransform="translate(261.791 35.3685) scale(170.776 171.5)">
<stop offset="0.1" stop-color="#FFE226"/>
<stop offset="0.79" stop-color="#FF7139"/>
</radialGradient>
<radialGradient id="paint5_radial_823_48702" cx="0" cy="0" r="1" gradientUnits="userSpaceOnUse" gradientTransform="translate(257.221 250.658) rotate(90) scale(124.183)">
<stop offset="0.125358" stop-color="white"/>
<stop offset="0.898179" stop-color="#E4D7FC"/>
<stop offset="1" stop-color="#C6BADD"/>
</radialGradient>
<radialGradient id="paint6_radial_823_48702" cx="0" cy="0" r="1" gradientUnits="userSpaceOnUse" gradientTransform="translate(257.221 216.35) rotate(90) scale(138.066 178.411)">
<stop stop-color="#FBF5FF"/>
<stop offset="0.4" stop-color="#E9DEFF"/>
<stop offset="0.706856" stop-color="#EAD7FC"/>
<stop offset="1" stop-color="#F4B8E7"/>
</radialGradient>
<radialGradient id="paint7_radial_823_48702" cx="0" cy="0" r="1" gradientUnits="userSpaceOnUse" gradientTransform="translate(214.773 155.758) rotate(151.052) scale(54.1124 54.1124)">
<stop stop-color="#FF9D1D"/>
<stop offset="0.635091" stop-color="#FF9D00" stop-opacity="0"/>
</radialGradient>
<linearGradient id="paint8_linear_823_48702" x1="324.203" y1="125.9" x2="324.203" y2="358.482" gradientUnits="userSpaceOnUse">
<stop stop-color="#FFC81A"/>
<stop offset="1" stop-color="#FF6440"/>
</linearGradient>
<radialGradient id="paint9_radial_823_48702" cx="0" cy="0" r="1" gradientUnits="userSpaceOnUse" gradientTransform="translate(311.732 183.857) rotate(36.3317) scale(48.013 28.8981)">
<stop stop-color="#FFE046"/>
<stop offset="0.5" stop-color="#FF8924"/>
<stop offset="1" stop-color="#FF602F" stop-opacity="0.2"/>
</radialGradient>
<linearGradient id="paint10_linear_823_48702" x1="299.929" y1="149.858" x2="308.303" y2="263.156" gradientUnits="userSpaceOnUse">
<stop stop-color="#FB2872"/>
<stop offset="1" stop-color="#E5A0B6"/>
</linearGradient>
<radialGradient id="paint11_radial_823_48702" cx="0" cy="0" r="1" gradientUnits="userSpaceOnUse" gradientTransform="translate(301.845 144.542) rotate(116.15) scale(71.3654 71.3654)">
<stop stop-color="white"/>
<stop offset="1" stop-color="white" stop-opacity="0"/>
</radialGradient>
<radialGradient id="paint12_radial_823_48702" cx="0" cy="0" r="1" gradientUnits="userSpaceOnUse" gradientTransform="translate(302.018 169.287) rotate(128.813) scale(50.4574 50.4574)">
<stop stop-color="white"/>
<stop offset="1" stop-color="white" stop-opacity="0"/>
</radialGradient>
<radialGradient id="paint13_radial_823_48702" cx="0" cy="0" r="1" gradientTransform="matrix(29.4051 -5.17534 17.4719 25.3797 236.457 162.048)" gradientUnits="userSpaceOnUse">
<stop stop-color="white"/>
<stop offset="1" stop-color="white" stop-opacity="0"/>
</radialGradient>
<radialGradient id="paint14_radial_823_48702" cx="0" cy="0" r="1" gradientUnits="userSpaceOnUse" gradientTransform="translate(214.708 91.4227) scale(484.325 476.011)">
<stop offset="0.14" stop-color="#FFF125"/>
<stop offset="0.48" stop-color="#FC8800"/>
<stop offset="0.66" stop-color="#E0303E"/>
<stop offset="0.9" stop-color="#E3007E"/>
</radialGradient>
<linearGradient id="paint15_linear_823_48702" x1="256.748" y1="185.014" x2="256.748" y2="369.564" gradientUnits="userSpaceOnUse">
<stop stop-color="#BD8414"/>
<stop offset="1" stop-color="#902121" stop-opacity="0.4"/>
</linearGradient>
<radialGradient id="paint16_radial_823_48702" cx="0" cy="0" r="1" gradientTransform="matrix(-50.1847 -106.382 115.379 -51.0973 256.285 281.22)" gradientUnits="userSpaceOnUse">
<stop offset="0.277411" stop-color="white" stop-opacity="0"/>
<stop offset="0.680727" stop-color="white"/>
<stop offset="1" stop-color="white" stop-opacity="0"/>
</radialGradient>
<radialGradient id="paint17_radial_823_48702" cx="0" cy="0" r="1" gradientUnits="userSpaceOnUse" gradientTransform="translate(378.132 -83.0164) scale(814.6 683.845)">
<stop offset="0.11" stop-color="#FFB34F"/>
<stop offset="0.46" stop-color="#FF870E"/>
<stop offset="0.72" stop-color="#FF3647"/>
<stop offset="0.9" stop-color="#E31587"/>
</radialGradient>
<linearGradient id="paint18_linear_823_48702" x1="327.773" y1="-58.1119" x2="428.347" y2="386.617" gradientUnits="userSpaceOnUse">
<stop offset="0.139423" stop-color="#FFF44F"/>
<stop offset="0.242788" stop-color="#FFC62F"/>
<stop offset="0.346154" stop-color="#FF980E"/>
<stop offset="0.57" stop-color="#FF3647"/>
<stop offset="0.74" stop-color="#E31587"/>
</linearGradient>
<linearGradient id="paint19_linear_823_48702" x1="327.773" y1="-58.1119" x2="428.347" y2="386.617" gradientUnits="userSpaceOnUse">
<stop stop-color="#FFF44F"/>
<stop offset="0.3" stop-color="#FF980E"/>
<stop offset="0.57" stop-color="#FF3647"/>
<stop offset="0.74" stop-color="#E31587"/>
</linearGradient>
<radialGradient id="paint20_radial_823_48702" cx="0" cy="0" r="1" gradientUnits="userSpaceOnUse" gradientTransform="translate(223.793 90.0921) rotate(29.242) scale(470.316 462.147)">
<stop offset="0.274717" stop-color="#FF6600"/>
<stop offset="0.48" stop-color="#FF980E"/>
<stop offset="0.66" stop-color="#FF3647"/>
<stop offset="0.9" stop-color="#E31587"/>
</radialGradient>
<linearGradient id="paint21_linear_823_48702" x1="304.625" y1="180.903" x2="304.625" y2="373.968" gradientUnits="userSpaceOnUse">
<stop stop-color="#E21D52"/>
<stop offset="1" stop-color="#FF643C" stop-opacity="0"/>
</linearGradient>
<radialGradient id="paint22_radial_823_48702" cx="0" cy="0" r="1" gradientUnits="userSpaceOnUse" gradientTransform="translate(373.87 119.671) scale(563.471 504.254)">
<stop offset="0.243388" stop-color="#FBC352"/>
<stop offset="0.442308" stop-color="#FF980E"/>
</radialGradient>
<linearGradient id="paint23_linear_823_48702" x1="432.736" y1="76.9634" x2="122.361" y2="417.621" gradientUnits="userSpaceOnUse">
<stop offset="0.17" stop-color="#FFF44F" stop-opacity="0.8"/>
<stop offset="0.677885" stop-color="#FFF44F" stop-opacity="0"/>
</linearGradient>
<linearGradient id="paint24_linear_823_48702" x1="254.694" y1="281.162" x2="254.694" y2="347.767" gradientUnits="userSpaceOnUse">
<stop stop-color="#FFEED7"/>
<stop offset="1" stop-color="#FFC2C1"/>
</linearGradient>
<clipPath id="clip0_823_48702">
<rect width="484.038" height="499.535" fill="white" transform="translate(16)"/>
</clipPath>
</defs>
</svg>
